<svg width="36" height="36" viewBox="0 0 36 36" fill="none" xmlns="http://www.w3.org/2000/svg">
<path fill-rule="evenodd" clip-rule="evenodd" d="M0 17.908C0.0493998 8.00908 8.08898 0 17.9995 0C27.9414 0 36 8.05861 36 17.9997C36 27.9416 27.9414 36.0002 17.9995 36.0002C8.08898 36.0002 0.0493998 27.9912 0 18.0915V17.908ZM22.1127 9.64454H24.5407V5.54432C24.1185 5.49114 22.6792 5.36462 21.007 5.36462C17.5088 5.36462 15.1081 7.50498 15.1081 11.4247V14.8053H11.1522V19.3914H15.1081V31.1522H19.8385V19.3826H23.7856L24.3788 14.7972H19.8385V11.8752C19.8385 10.5439 20.2068 9.64454 22.1127 9.64454Z" fill="white"/>
</svg>
