<svg width="36" height="36" viewBox="0 0 36 36" fill="none" xmlns="http://www.w3.org/2000/svg">
<path d="M21.501 18.0001C21.501 16.067 19.9339 14.5001 18.001 14.5001C16.0679 14.5001 14.5009 16.067 14.5009 18.0001C14.5009 19.933 16.0679 21.5001 18.001 21.5001C19.9339 21.5001 21.501 19.933 21.501 18.0001Z" fill="white"/>
<path fill-rule="evenodd" clip-rule="evenodd" d="M17.278 9.39205C17.2029 9.39208 17.1299 9.39213 17.059 9.39225V9.38962C15.1021 9.39181 14.7267 9.40494 13.7581 9.44868C12.7343 9.49572 12.1785 9.66635 11.8083 9.81072C11.3183 10.0015 10.9683 10.229 10.6008 10.5965C10.2333 10.964 10.0054 11.314 9.81505 11.804C9.67133 12.1741 9.50027 12.7297 9.45346 13.7535C9.40315 14.8604 9.39308 15.1911 9.39308 17.9951C9.39308 20.799 9.40315 21.1315 9.45346 22.2384C9.50006 23.2622 9.67133 23.8178 9.81505 24.1875C10.0058 24.6777 10.2333 25.0268 10.6008 25.3944C10.9683 25.7619 11.3183 25.9894 11.8083 26.1797C12.1787 26.3234 12.7343 26.4945 13.7581 26.5417C14.865 26.592 15.1972 26.603 18.001 26.603C20.8045 26.603 21.137 26.592 22.2439 26.5417C23.2677 26.4949 23.8237 26.3243 24.1934 26.1799C24.6836 25.9896 25.0326 25.7621 25.4001 25.3946C25.7676 25.0273 25.9955 24.6784 26.1858 24.1884C26.3295 23.8187 26.5006 23.2631 26.5474 22.2393C26.5977 21.1324 26.6087 20.7999 26.6087 17.9977C26.6087 15.1955 26.5977 14.863 26.5474 13.7561C26.5008 12.7324 26.3295 12.1767 26.1858 11.807C25.9951 11.317 25.7676 10.967 25.4001 10.5995C25.0328 10.232 24.6834 10.0045 24.1934 9.81422C23.8233 9.6705 23.2677 9.49943 22.2439 9.45263C21.1368 9.40231 20.8045 9.39225 18.001 9.39225C17.7394 9.39225 17.4992 9.39201 17.278 9.39205ZM22.3458 12.3953C22.3458 11.6994 22.9102 11.1357 23.6059 11.1357C24.3015 11.1357 24.8659 11.6996 24.8659 12.3953C24.8659 13.0909 24.3015 13.6553 23.6059 13.6553C22.9102 13.6553 22.3458 13.0909 22.3458 12.3953ZM12.6087 18.0001C12.6087 15.0223 15.023 12.608 18.0008 12.6079C20.9786 12.6079 23.3923 15.0223 23.3923 18.0001C23.3923 20.978 20.9789 23.3912 18.001 23.3912C15.0231 23.3912 12.6087 20.978 12.6087 18.0001Z" fill="white"/>
<path fill-rule="evenodd" clip-rule="evenodd" d="M18 36.0002C27.9411 36.0002 36 27.9413 36 18.0001C36 8.05892 27.9411 0 18 0C8.05888 0 0 8.05892 0 18.0001C0 27.9413 8.05888 36.0002 18 36.0002ZM13.6714 7.56348C14.791 7.51254 15.1489 7.50005 17.9977 7.50005C20.8502 7.50005 21.2068 7.51252 22.3268 7.56348C23.4446 7.61467 24.2081 7.79165 24.8775 8.0513C25.5687 8.31927 26.1528 8.67802 26.7369 9.26209C27.3209 9.84572 27.6797 10.4315 27.9487 11.1221C28.2069 11.7898 28.3841 12.5528 28.4366 13.6706C28.4869 14.7906 28.5 15.1485 28.5 18.0001C28.5 20.8518 28.4869 21.2088 28.4366 22.3288C28.3841 23.4462 28.2069 24.2094 27.9487 24.8772C27.6797 25.5676 27.3209 26.1534 26.7369 26.737C26.1534 27.3211 25.5685 27.6807 24.8781 27.9489C24.21 28.2086 23.4462 28.3856 22.3283 28.4367C21.2083 28.4877 20.8515 28.5002 17.9997 28.5002C15.1482 28.5002 14.7906 28.4877 13.6706 28.4367C12.553 28.3856 11.7897 28.2086 11.1217 27.9489C10.4315 27.6807 9.84567 27.3211 9.26228 26.737C8.67842 26.1534 8.31967 25.5676 8.05126 24.877C7.79182 24.2094 7.61485 23.4464 7.56345 22.3285C7.51268 21.2085 7.5 20.8518 7.5 18.0001C7.5 15.1485 7.51311 14.7904 7.56322 13.6704C7.61353 12.553 7.79073 11.7898 8.05103 11.1219C8.32011 10.4315 8.67886 9.84572 9.26292 9.26209C9.84657 8.67825 10.4324 8.3195 11.123 8.0513C11.7906 7.79165 12.5536 7.61467 13.6714 7.56348Z" fill="white"/>
</svg>
