<svg width="37" height="36" viewBox="0 0 37 36" fill="none" xmlns="http://www.w3.org/2000/svg">
<path fill-rule="evenodd" clip-rule="evenodd" d="M28.0309 13.4087C28.0309 13.6182 28.0406 13.8366 28.0406 14.0462C28.0406 20.5527 23.0846 28.0577 14.0291 28.0577C11.2417 28.0577 8.65489 27.2494 6.47586 25.8504C6.85703 25.8891 7.24626 25.9173 7.64596 25.9173C9.95796 25.9173 12.079 25.1284 13.7624 23.8059C11.6035 23.7584 9.78632 22.3409 9.15855 20.381C9.4535 20.4391 9.76698 20.4673 10.0813 20.4673C10.5285 20.4673 10.9661 20.41 11.3755 20.2956C9.12068 19.8387 7.42758 17.8514 7.42758 15.4637V15.3968C8.08354 15.7683 8.84427 15.9867 9.65335 16.0149C8.33094 15.1308 7.46545 13.6271 7.46545 11.9155C7.46545 11.021 7.71285 10.1748 8.13109 9.44227C10.5567 12.4191 14.1903 14.379 18.2808 14.5885C18.2051 14.2275 18.1575 13.856 18.1575 13.4659C18.1575 10.7453 20.364 8.5389 23.0846 8.5389C24.5021 8.5389 25.7761 9.13766 26.6803 10.099C27.8028 9.87018 28.8585 9.46161 29.8094 8.89993C29.4387 10.0418 28.6587 11.0113 27.6409 11.6205C28.6305 11.4972 29.5814 11.2305 30.4654 10.8404C29.7997 11.83 28.9721 12.6955 28.0309 13.4087ZM18.0004 0C8.05937 0 0 8.05861 0 17.9997C0 27.9408 8.05937 36.0002 18.0004 36.0002C27.9414 36.0002 36 27.9408 36 17.9997C36 8.05861 27.9414 0 18.0004 0Z" fill="white"/>
<circle cx="18.5" cy="18" r="18" fill="white"/>
<path fill-rule="evenodd" clip-rule="evenodd" d="M17.7405 8C11.5181 8 6.5 12.0144 6.5 16.888C6.5 20.0514 8.58752 22.8213 11.7188 24.403L10.659 28.3613C10.639 28.4207 10.6359 28.4843 10.6501 28.5453C10.6643 28.6063 10.6952 28.6621 10.7393 28.7065C10.8036 28.7633 10.8864 28.7946 10.9721 28.7948C11.0432 28.7891 11.1107 28.761 11.1648 28.7146L15.7252 25.6395C16.3984 25.7324 17.077 25.7807 17.7566 25.784C23.9709 25.784 28.9971 21.7696 28.9971 16.888C28.9971 12.0064 23.9549 8 17.7405 8ZM10.4337 15.4829H9.20524C9.05299 15.4873 8.90261 15.4483 8.77168 15.3705C8.71355 15.3341 8.66357 15.286 8.62489 15.2293C8.5862 15.1727 8.55964 15.1087 8.54687 15.0413C8.54297 14.9985 8.54297 14.9556 8.54687 14.9129C8.54306 14.8329 8.55858 14.7532 8.59212 14.6805C8.62567 14.6078 8.67624 14.5443 8.73956 14.4953C8.87954 14.394 9.04849 14.3404 9.2213 14.3427H12.9226C13.0761 14.3374 13.2275 14.3794 13.3562 14.4632C13.4157 14.498 13.4667 14.5456 13.5056 14.6026C13.5445 14.6595 13.5702 14.7243 13.581 14.7924C13.5849 14.8325 13.5849 14.8728 13.581 14.9129C13.5848 14.994 13.5693 15.0748 13.5358 15.1488C13.5023 15.2227 13.4518 15.2877 13.3883 15.3383C13.2517 15.4396 13.0844 15.4907 12.9146 15.4829H11.7263V19.7061C11.7312 19.7961 11.7172 19.886 11.6854 19.9703C11.6536 20.0547 11.6047 20.1315 11.5417 20.1959C11.4812 20.2574 11.4086 20.3057 11.3284 20.3375C11.2482 20.3693 11.1622 20.3839 11.076 20.3805C10.9252 20.3848 10.7776 20.3366 10.6585 20.2441C10.5451 20.1537 10.4681 20.0253 10.4417 19.8827C10.4338 19.8241 10.4338 19.7647 10.4417 19.7061L10.4337 15.4829ZM14.1684 14.3347C14.0538 14.4094 13.9709 14.5238 13.9356 14.6559L12.2334 19.2725C12.2244 19.2974 12.2135 19.3228 12.2024 19.3486L12.2024 19.3486C12.1742 19.4144 12.1451 19.4821 12.1451 19.5456C12.1313 19.6253 12.1313 19.7067 12.1451 19.7864C12.1408 19.8318 12.1408 19.8775 12.1451 19.9229C12.1686 20.0561 12.24 20.1759 12.3458 20.2601C12.4544 20.3416 12.5874 20.3841 12.7232 20.3805C12.8485 20.3963 12.9755 20.3681 13.0823 20.3008C13.1892 20.2334 13.2694 20.1311 13.3093 20.0112L13.6465 19.0237H15.7581L16.0953 20.0112C16.1362 20.1288 16.2155 20.2291 16.3203 20.2961C16.4252 20.3631 16.5496 20.3928 16.6734 20.3805C16.7539 20.3825 16.834 20.3678 16.9086 20.3374C16.9832 20.307 17.0507 20.2616 17.107 20.2039C17.165 20.1514 17.2109 20.0868 17.2414 20.0147C17.2719 19.9425 17.2863 19.8647 17.2836 19.7864C17.2864 19.7356 17.2864 19.6847 17.2836 19.6339C17.2557 19.5116 17.2209 19.3909 17.1792 19.2725L15.5735 14.7362C15.5351 14.5754 15.4376 14.435 15.3005 14.3428C15.1711 14.2692 15.0237 14.233 14.8749 14.2384H14.5698C14.4296 14.2321 14.2905 14.2655 14.1684 14.3347ZM13.9757 18.1164L14.7385 15.7077L15.4932 18.1164H13.9757ZM17.4675 14.913C17.4593 14.7328 17.5228 14.5567 17.6441 14.4232C17.7058 14.361 17.7798 14.3124 17.8614 14.2806C17.943 14.2488 18.0304 14.2344 18.1178 14.2385C18.2682 14.2367 18.415 14.2847 18.5353 14.375C18.6469 14.4692 18.7209 14.6002 18.7441 14.7443C18.752 14.8002 18.752 14.857 18.7441 14.913V19.1362H20.952C21.1051 19.1342 21.2555 19.1759 21.3856 19.2565C21.4441 19.2926 21.4943 19.3406 21.533 19.3973C21.5718 19.454 21.5981 19.5182 21.6104 19.5858V19.7062C21.6142 19.7862 21.5987 19.8658 21.5652 19.9385C21.5316 20.0112 21.481 20.0748 21.4177 20.1237C21.2778 20.2251 21.1088 20.2786 20.936 20.2762H18.2222C18.0494 20.2874 17.8776 20.2424 17.7324 20.1478C17.6026 20.0508 17.5161 19.9066 17.4916 19.7464C17.4857 19.6582 17.4857 19.5696 17.4916 19.4814L17.4675 14.913ZM21.9319 14.4232C21.8136 14.5585 21.7505 14.7333 21.7553 14.913L21.7071 19.6661C21.6992 19.7247 21.6992 19.7842 21.7071 19.8428C21.7335 19.9854 21.8105 20.1136 21.9239 20.204C22.0406 20.2954 22.1852 20.3437 22.3334 20.3406C22.422 20.3443 22.5105 20.3298 22.5933 20.298C22.6762 20.2663 22.7517 20.2178 22.8151 20.1558C22.9335 20.0206 22.9966 19.8457 22.9917 19.6661V18.3253L23.7063 17.5786L25.1997 19.9872C25.2616 20.1002 25.3497 20.1965 25.4566 20.2682C25.5555 20.3202 25.6662 20.3452 25.7778 20.3406C25.9457 20.3429 26.1095 20.2892 26.2435 20.188C26.3147 20.1274 26.3701 20.0505 26.4051 19.9638C26.4401 19.8771 26.4535 19.7832 26.4442 19.6902V19.6501C26.3999 19.5151 26.3349 19.3877 26.2515 19.2727V19.1924L24.6457 16.7034L25.9785 15.2421C26.0373 15.1758 26.0885 15.1031 26.1311 15.0254C26.1729 14.952 26.195 14.869 26.1953 14.7845C26.1914 14.766 26.1914 14.7469 26.1953 14.7284C26.1985 14.7125 26.1985 14.696 26.1953 14.6801C26.1839 14.6153 26.1595 14.5535 26.1236 14.4983C26.0877 14.4431 26.0411 14.3957 25.9865 14.359C25.8707 14.2798 25.7335 14.2377 25.5931 14.2385C25.4972 14.2366 25.4026 14.2617 25.3201 14.3108C25.2326 14.3806 25.1495 14.4556 25.0712 14.5356L23.0399 16.8801V14.913C23.0439 14.8569 23.0439 14.8005 23.0399 14.7443C23.014 14.5993 22.9371 14.4684 22.8231 14.375C22.6917 14.2793 22.5313 14.2318 22.369 14.2406C22.2066 14.2493 22.0523 14.3139 21.9319 14.4232Z" fill="#001E62"/>
</svg>
