<svg width="120" height="37" viewBox="0 0 120 37" fill="none" xmlns="http://www.w3.org/2000/svg">
<path d="M28.5749 0C22.4703 0 15.7465 3.7388 11.5306 7.285L11.8615 7.76368C18.41 3.16382 27.5033 0.169946 30.0113 4.65934C31.3318 7.03292 29.0867 11.8056 25.9227 15.5868C26.6861 13.9185 26.1828 10.7179 21.7691 10.7179C14.4402 10.7207 0 20.4473 0 30.4033C0 34.397 2.76249 37 7.30914 37C19.4901 37 36.017 16.9974 36.017 6.94794C36.017 3.39891 33.9783 0 28.5749 0ZM11.4797 26.2396C9.37041 26.2396 8.35815 24.611 8.8869 22.7331C9.97832 18.8441 16.9962 13.0801 21.7747 13.0801C25.2667 13.0801 25.0038 16.2071 22.9595 18.8725L21.8285 20.1187C17.7766 24.1096 14.0132 26.2396 11.4769 26.2396H11.4797Z" fill="white"/>
<path d="M54.7897 9.3994C53.6643 8.01718 51.8547 7.39404 50.5541 7.39404H43.4287L42.2214 11.9146H48.9367L49.5786 11.9854C49.5786 11.9854 50.2006 12.0591 50.5343 12.5207C50.817 12.9003 50.851 13.4696 50.653 14.2174L50.3364 15.407H46.1064C42.4589 15.407 37.3835 18.027 36.2525 22.2586C35.687 24.3659 36.1818 26.19 37.2732 27.5354C38.359 28.8667 40.4089 29.6003 42.6172 29.6003H46.539V29.6059H51.5183L53.8538 20.8594L55.5757 14.4355C56.2544 11.9118 55.5192 10.3058 54.7869 9.40507L54.7897 9.3994ZM43.5192 25.0826C42.8095 25.0826 42.2214 24.8333 41.851 24.3829C41.4664 23.9071 41.3533 23.233 41.5343 22.539C41.9386 21.0294 43.5616 19.8539 45.227 19.8539H49.1431L47.7435 25.0826H43.5164H43.5192Z" fill="white"/>
<path d="M66.9767 7.39968C65.0455 7.39968 63.2585 7.9775 61.7967 9.05665C60.3292 10.1471 59.5149 11.4557 59.0342 13.2685C57.988 17.1886 61.0587 19.0721 63.5328 20.4175C65.3028 21.3749 66.8325 22.2076 66.5017 23.4341C66.2641 24.3149 65.8853 25.0854 63.7024 25.0854H57.0549L55.8447 29.6031H63.2048C65.1812 29.6031 67.005 29.1895 68.4753 28.0594C69.9456 26.9293 70.7769 25.3488 71.2887 23.4227C71.7806 21.5873 71.4442 19.8425 70.2736 18.5283C69.2896 17.435 67.8787 16.6702 66.6317 15.9961C65.0398 15.135 63.5356 14.325 63.8014 13.3449C63.9597 12.753 64.5535 11.9174 65.8372 11.9174H72.3037L73.5139 7.39685H66.9795L66.9767 7.39968Z" fill="white"/>
<path d="M79.2903 7.39685L73.5137 29.6031H78.3883L84.1621 7.39685H79.2903Z" fill="white"/>
<path d="M99.1057 7.39685C90.5157 7.43367 86.0228 13.1637 84.5977 18.5056C82.9069 24.8304 86.2688 29.6031 92.4215 29.6031H96.5468L97.7514 25.0854H93.6317C91.3272 25.0854 88.1632 23.2698 89.4356 18.5056C90.4535 14.713 94.1349 11.9202 98.1896 11.9202H100.805L102.012 7.39968H99.1057V7.39685Z" fill="white"/>
<path d="M112.147 7.39968C110.219 7.39968 108.429 7.9775 106.973 9.05665C105.497 10.1471 104.688 11.4557 104.202 13.2685C103.156 17.1886 106.229 19.0721 108.704 20.4175C110.474 21.3749 112.006 22.2076 111.672 23.4341C111.441 24.3149 111.059 25.0854 108.87 25.0854H102.223L101.013 29.6031H108.376C110.349 29.6031 112.17 29.1895 113.64 28.0594C115.114 26.9293 115.945 25.3488 116.457 23.4227C116.951 21.5873 116.615 19.8425 115.439 18.5283C114.455 17.435 113.041 16.6702 111.803 15.9961C110.202 15.135 108.701 14.325 108.964 13.3449C109.122 12.753 109.713 11.9174 111.005 11.9174H117.475L118.679 7.39685H112.142L112.147 7.39968Z" fill="white"/>
</svg>
